<?xml version="1.0" standalone="no"?><!DOCTYPE svg PUBLIC "-//W3C//DTD SVG 1.1//EN" "http://www.w3.org/Graphics/SVG/1.1/DTD/svg11.dtd"><svg t="1582020552551" class="icon" viewBox="0 0 1024 1024" version="1.1" xmlns="http://www.w3.org/2000/svg" p-id="4675" xmlns:xlink="http://www.w3.org/1999/xlink" width="200" height="200"><defs><style type="text/css"></style></defs><path d="M512 313.6c-38.4 0-64 25.6-64 64s32 64 64 64 64-25.6 64-64-25.6-64-64-64zM524.8 32h-25.6c-76.8 57.6-166.4 83.2-262.4 83.2-25.6 0-57.6-6.4-83.2-12.8-12.8-6.4-25.6 6.4-25.6 19.2V512c0 38.4 12.8 89.6 38.4 140.8 25.6 51.2 70.4 108.8 121.6 166.4 44.8 51.2 96 96 147.2 134.4l57.6 38.4c12.8 0 19.2 0 25.6-6.4 12.8-6.4 32-19.2 57.6-38.4 57.6-38.4 102.4-89.6 153.6-134.4 51.2-57.6 96-115.2 121.6-166.4 25.6-51.2 44.8-96 44.8-134.4V121.6c0-12.8-12.8-19.2-25.6-19.2-32 6.4-57.6 12.8-89.6 12.8-89.6 0-179.2-32-256-83.2z m25.6 512v179.2c0 25.6-19.2 38.4-44.8 38.4-19.2 0-38.4-19.2-38.4-38.4V544c-76.8-19.2-134.4-83.2-134.4-166.4 0-96 76.8-172.8 179.2-172.8s179.2 76.8 179.2 172.8c0 83.2-57.6 153.6-140.8 166.4z" p-id="4676"></path></svg>