<?xml version="1.0" standalone="no"?><!DOCTYPE svg PUBLIC "-//W3C//DTD SVG 1.1//EN" "http://www.w3.org/Graphics/SVG/1.1/DTD/svg11.dtd"><svg t="1582020528009" class="icon" viewBox="0 0 1024 1024" version="1.1" xmlns="http://www.w3.org/2000/svg" p-id="4196" xmlns:xlink="http://www.w3.org/1999/xlink" width="200" height="200"><defs><style type="text/css"></style></defs><path d="M857.6 115.2h-40.533333V298.666667H224V115.2H185.6c-36.266667 0-64 27.733333-64 61.866667v729.6c0 34.133333 27.733333 61.866667 61.866667 61.866666h674.133333c34.133333 0 61.866667-27.733333 61.866667-61.866666V177.066667c0-34.133333-27.733333-61.866667-61.866667-61.866667z m-21.333333 371.2L563.2 821.333333c-8.533333 10.666667-21.333333 17.066667-34.133333 17.066667-10.666667 0-19.2-4.266667-27.733334-10.666667L256 629.333333c-19.2-14.933333-21.333333-44.8-6.4-64 14.933333-19.2 44.8-21.333333 64-6.4l209.066667 170.666667L768 428.8c14.933333-19.2 44.8-21.333333 64-6.4 17.066667 14.933333 21.333333 44.8 4.266667 64z" p-id="4197"></path><path d="M729.6 70.4c-4.266667-23.466667-21.333333-40.533333-40.533333-40.533333H349.866667c-19.2 0-36.266667 17.066667-40.533334 40.533333L277.333333 232.533333h482.133334l-29.866667-162.133333z m-211.2 113.066667c-27.733333 0-51.2-23.466667-51.2-51.2 0-27.733333 23.466667-51.2 51.2-51.2s51.2 23.466667 51.2 51.2c2.133333 27.733333-21.333333 51.2-51.2 51.2z" p-id="4198"></path></svg>