<?xml version="1.0" standalone="no"?><!DOCTYPE svg PUBLIC "-//W3C//DTD SVG 1.1//EN" "http://www.w3.org/Graphics/SVG/1.1/DTD/svg11.dtd"><svg t="1581656058972" class="icon" viewBox="0 0 1024 1024" version="1.1" xmlns="http://www.w3.org/2000/svg" p-id="2028" xmlns:xlink="http://www.w3.org/1999/xlink" width="200" height="200"><defs><style type="text/css"></style></defs><path d="M884.4 195.3l-36.9-0.6c-0.9 0-83.5-1.8-168.9-36.4-87.6-35.5-144-76.3-144.5-76.8l-22.3-16.1-22.1 16.1c-0.5 0.4-57 41.2-144.5 76.8-85.3 34.6-168 36.4-168.8 36.4l-37 0.6v375.4c0 188.5 242.3 387.8 372.5 387.8 130.3 0 372.6-199.3 372.6-387.8 0.1 0.2-0.1-375.4-0.1-375.4zM520.2 516.5L668 368.7c12.4-12.4 32.8-12.4 45.3 0 12.4 12.5 12.4 32.8 0 45.3L471.8 655.5c-6.2 6.2-14.4 9.3-22.7 9.3-8.2 0-16.4-3.1-22.6-9.3L310.7 539.7c-12.4-12.4-12.4-32.8 0-45.3 12.4-12.4 32.8-12.4 45.3 0l93.2 93.2 71-71.1" fill="" p-id="2029"></path></svg>