<?xml version="1.0" standalone="no"?><!DOCTYPE svg PUBLIC "-//W3C//DTD SVG 1.1//EN" "http://www.w3.org/Graphics/SVG/1.1/DTD/svg11.dtd"><svg t="1578473725662" class="icon" viewBox="0 0 1024 1024" version="1.1" xmlns="http://www.w3.org/2000/svg" p-id="2037" xmlns:xlink="http://www.w3.org/1999/xlink" width="200" height="200"><defs><style type="text/css"></style></defs><path d="M832 256H548.266667c-19.2 0-38.4-6.4-53.333334-19.2L405.333333 166.4c-12.8-10.666667-32-17.066667-51.2-17.066667H192c-46.933333 0-85.333333 38.4-85.333333 85.333334v554.666666c0 46.933333 38.4 85.333333 85.333333 85.333334h640c46.933333 0 85.333333-38.4 85.333333-85.333334V341.333333c0-46.933333-38.4-85.333333-85.333333-85.333333z m-149.333333 256H341.333333c-23.466667 0-42.666667-19.2-42.666666-42.666667s19.2-42.666667 42.666666-42.666666h341.333334c23.466667 0 42.666667 19.2 42.666666 42.666666s-19.2 42.666667-42.666666 42.666667z" p-id="2038"></path></svg>