<?xml version="1.0" standalone="no"?><!DOCTYPE svg PUBLIC "-//W3C//DTD SVG 1.1//EN" "http://www.w3.org/Graphics/SVG/1.1/DTD/svg11.dtd"><svg t="1582021200994" class="icon" viewBox="0 0 1024 1024" version="1.1" xmlns="http://www.w3.org/2000/svg" p-id="18373" xmlns:xlink="http://www.w3.org/1999/xlink" width="200" height="200"><defs><style type="text/css"></style></defs><path d="M860.416 64 163.584 64C119.616 64 64 69.824 64 113.792l0 99.584C64 257.28 119.616 263.104 163.584 263.104l696.896 0C904.384 263.104 960 257.28 960 213.312L960 113.792C960 69.824 904.384 64 860.416 64zM860.416 362.688 163.584 362.688C117.248 362.688 64 366.144 64 412.416l0 149.312c0 46.336 53.248 49.792 99.584 49.792l696.896 0C906.752 611.584 960 608.064 960 561.792L960 412.416C960 366.144 906.752 362.688 860.416 362.688zM860.416 711.104 163.584 711.104C117.248 711.104 64 714.56 64 760.896l0 149.312C64 956.544 117.248 960 163.584 960l696.896 0C906.752 960 960 956.544 960 910.208l-0.512-132.992L960 760.896C960 714.56 906.752 711.104 860.416 711.104z" p-id="18374"></path></svg>