<?xml version="1.0" standalone="no"?><!DOCTYPE svg PUBLIC "-//W3C//DTD SVG 1.1//EN" "http://www.w3.org/Graphics/SVG/1.1/DTD/svg11.dtd"><svg t="1582020447788" class="icon" viewBox="0 0 1024 1024" version="1.1" xmlns="http://www.w3.org/2000/svg" p-id="3715" xmlns:xlink="http://www.w3.org/1999/xlink" width="200" height="200"><defs><style type="text/css"></style></defs><path d="M374.153846 0H64.748308A64.669538 64.669538 0 0 0 0 64.669538v309.563077c0 35.682462 28.987077 64.590769 64.669538 64.59077h309.563077a64.669538 64.669538 0 0 0 64.669539-64.59077V64.590769A64.669538 64.669538 0 0 0 374.232615 0z m585.176616 0h-309.563077a64.669538 64.669538 0 0 0-64.59077 64.669538v309.563077c0 35.682462 28.908308 64.590769 64.59077 64.59077h309.563077a64.669538 64.669538 0 0 0 64.669538-64.59077V64.590769A64.669538 64.669538 0 0 0 959.330462 0zM374.153846 585.097846H64.590769A64.669538 64.669538 0 0 0 0 649.846154v309.484308c0 35.682462 28.987077 64.669538 64.669538 64.669538h309.563077a64.669538 64.669538 0 0 0 64.669539-64.669538v-309.563077a64.669538 64.669538 0 0 0-64.669539-64.59077z m585.097846 0h-309.563077a64.669538 64.669538 0 0 0-64.590769 64.748308v309.484308c0 35.682462 28.908308 64.669538 64.590769 64.669538h309.563077a64.669538 64.669538 0 0 0 64.669539-64.669538v-309.563077a64.669538 64.669538 0 0 0-64.669539-64.59077z" p-id="3716"></path></svg>