<?xml version="1.0" standalone="no"?><!DOCTYPE svg PUBLIC "-//W3C//DTD SVG 1.1//EN" "http://www.w3.org/Graphics/SVG/1.1/DTD/svg11.dtd"><svg t="1582020544601" class="icon" viewBox="0 0 1024 1024" version="1.1" xmlns="http://www.w3.org/2000/svg" p-id="4435" xmlns:xlink="http://www.w3.org/1999/xlink" width="200" height="200"><defs><style type="text/css"></style></defs><path d="M492.032 494.592c-119.808 0-214.528-94.72-214.528-214.528s94.72-214.528 214.528-214.528S706.56 160.256 706.56 280.064c0 114.688-94.72 214.528-214.528 214.528zM961.28 749.06112c0 130.78016-106.01984 236.8-236.8 236.8s-236.8-106.01984-236.8-236.8c0-130.78528 106.01984-236.8 236.8-236.8s236.8 106.01472 236.8 236.8z m-272.64-56.32c0 11.264-9.216 20.48-20.48 20.48h-87.04c-11.264 0-20.48 9.216-20.48 20.48v30.72c0 11.264 9.216 20.48 20.48 20.48h87.04c11.264 0 20.48 9.216 20.48 20.48v87.04c0 11.264 9.216 20.48 20.48 20.48h30.72c11.264 0 20.48-9.216 20.48-20.48v-87.04c0-11.264 9.216-20.48 20.48-20.48h87.04c11.264 0 20.48-9.216 20.48-20.48v-30.72c0-11.264-9.216-20.48-20.48-20.48h-87.04c-11.264 0-20.48-9.216-20.48-20.48v-87.04c0-11.264-9.216-20.48-20.48-20.48h-30.72c-11.264 0-20.48 9.216-20.48 20.48v87.04z" p-id="4436"></path><path d="M435.84 749.06112c0-85.30944 37.03296-161.95072 95.87712-214.78912H402.432c-144.384 0-229.376 109.824-229.376 109.824-79.872 89.6-74.752 214.528-74.752 214.528 0 84.48 129.536 89.6 129.536 89.6 39.62368 4.5056 140.63616 5.0432 208.64 5.10976 8.05888 0.01024 64.34304-3.8144 79.44192-4.84864-49.57184-51.82976-80.08192-122.04544-80.08192-199.424z" p-id="4437"></path></svg>